<?xml version="1.0" standalone="no"?>
<!DOCTYPE svg PUBLIC "-//W3C//DTD SVG 20010904//EN"
 "http://www.w3.org/TR/2001/REC-SVG-20010904/DTD/svg10.dtd">
<svg version="1.0" xmlns="http://www.w3.org/2000/svg"
 width="88.000000pt" height="88.000000pt" viewBox="0 0 88.000000 88.000000"
 preserveAspectRatio="xMidYMid meet">
<metadata>
Created by potrace 1.11, written by Peter Selinger 2001-2013
</metadata>
<g transform="translate(0.000000,88.000000) scale(0.100000,-0.100000)"
fill="#000000" stroke="none">
<path d="M48 733 c-2 -32 -2 -194 0 -360 2 -294 3 -303 22 -303 19 0 20 7 20
106 0 71 4 110 13 118 6 7 36 40 66 74 l54 60 121 0 c460 -1 486 1 486 22 0
20 -7 20 -286 20 l-285 0 91 101 c83 91 91 103 77 117 -14 14 -18 12 -40 -14
-14 -16 -38 -43 -53 -59 -16 -17 -60 -67 -99 -110 -38 -44 -87 -98 -107 -120
l-37 -40 -2 210 c-1 116 -1 216 0 223 1 6 -7 12 -18 12 -17 0 -20 -8 -23 -57z"/>
</g>
</svg>
